<svg version="1.1" id="Layer_1" xmlns="http://www.w3.org/2000/svg" xmlns:xlink="http://www.w3.org/1999/xlink" x="0px" y="0px"
	 width="100%" viewBox="0 0 1024 576" enable-background="new 0 0 1024 576" xml:space="preserve">
<path fill="#007FB2" opacity="1.000000" stroke="none" 
	d="
M1.380077,265.322357 
	C1.000000,178.357742 1.021813,91.715462 0.915464,5.073344 
	C0.911459,1.810891 1.350338,0.896295 4.924540,0.897457 
	C343.662384,1.007614 682.400269,1.008374 1021.138123,0.891088 
	C1024.840698,0.889806 1025.077759,2.005403 1025.074463,5.135993 
	C1024.981445,91.444817 1025.000000,177.753754 1025.000000,264.531342 
	C1022.988464,267.142609 1020.350647,266.477631 1017.921326,266.478333 
	C928.650879,266.504242 839.380371,266.499939 750.109924,266.500000 
	C678.493713,266.500031 606.877441,266.508026 535.261230,266.483551 
	C529.954407,266.481750 524.647522,267.193970 518.851318,266.496399 
	C509.397552,265.662567 500.563293,267.707489 491.521027,267.267151 
	C474.421143,266.434479 457.266327,266.195496 440.123932,266.467102 
	C437.117310,266.514740 434.155792,266.626190 430.766907,267.449707 
	C426.729065,267.472595 423.172699,267.567017 419.132996,267.302460 
	C416.088898,266.161926 413.393402,266.512238 410.746338,266.511963 
	C276.855621,266.498291 142.964920,266.503876 9.074230,266.470032 
	C6.630808,266.469421 4.058611,267.123352 1.380077,265.322357 
z"/>
<path fill="#808080" opacity="1.000000" stroke="none" 
	d="
M885.224609,576.717407 
	C634.312439,577.000000 383.624878,577.000000 132.468658,577.000000 
	C130.300766,574.146851 132.712357,572.679382 134.190796,571.119263 
	C140.943588,563.993530 148.422592,557.617249 155.621170,550.963318 
	C167.337372,540.133545 179.032852,529.279663 190.746887,518.446960 
	C206.367355,504.001709 221.944412,489.509186 237.474319,474.966309 
	C238.323135,474.171387 239.161057,473.353241 240.659866,472.773804 
	C241.340408,472.617126 241.628036,472.588928 242.364273,472.538757 
	C246.776306,471.970093 250.760193,471.937927 254.754059,471.938782 
	C330.619690,471.955231 406.485291,471.949524 482.350922,471.957428 
	C484.843475,471.957703 487.343048,471.813904 490.314636,472.207642 
	C500.908936,471.787598 511.015839,471.796356 521.612061,472.230347 
	C524.583130,471.911713 527.079895,471.949219 529.575928,471.949310 
	C606.628357,471.951813 683.680786,471.952606 760.733215,471.942535 
	C763.564697,471.942169 766.386841,471.964508 769.631104,472.499023 
	C770.366211,472.526001 770.651733,472.536560 771.349365,472.571991 
	C775.939270,474.472931 779.099060,477.724457 782.408142,480.710175 
	C801.077332,497.554810 819.903198,514.224487 838.586548,531.052246 
	C852.567932,543.645020 866.520630,556.269592 880.511963,568.851440 
	C882.741760,570.856567 885.817139,572.609863 885.224609,576.717407 
z"/>
<path fill="#01B101" opacity="1.000000" stroke="none" 
	d="
M1024.623535,413.674744 
	C1025.000000,433.687561 1025.000000,453.375122 1025.000000,473.531342 
	C1023.223755,475.877472 1020.914001,476.031616 1018.539429,476.033051 
	C965.240051,476.065033 911.940613,476.046448 858.641235,476.051178 
	C856.628967,476.051361 854.694336,475.404419 852.230103,475.482178 
	C851.486633,475.461609 851.196960,475.451202 850.487061,475.413605 
	C840.475098,470.031342 831.913391,463.141968 822.842346,457.013641 
	C804.243347,444.448334 785.794556,431.657654 767.485901,418.671051 
	C765.737488,417.430908 761.731323,416.505310 765.436951,412.679871 
	C768.267273,411.699554 770.785767,411.965729 773.270447,411.965149 
	C854.030090,411.945587 934.789734,411.943024 1015.549377,411.976807 
	C1018.491089,411.978027 1021.592957,411.358246 1024.623535,413.674744 
z"/>
<path fill="#01B101" opacity="1.000000" stroke="none" 
	d="
M1.374840,474.323608 
	C1.000000,454.312439 1.000000,434.624878 1.000000,414.468658 
	C3.378866,411.505859 6.495548,411.969391 9.452662,411.967316 
	C49.735023,411.939423 90.017403,411.951691 130.299774,411.950592 
	C164.922638,411.949615 199.545517,411.946014 234.168381,411.958344 
	C236.828262,411.959290 239.495758,411.816071 242.571030,412.299286 
	C247.284286,414.335602 244.607971,416.334412 242.844940,417.885040 
	C237.726547,422.386749 231.948059,426.040436 226.472397,430.080292 
	C206.833786,444.569336 186.854706,458.593170 167.285797,473.179932 
	C166.213943,473.978882 165.087921,474.666504 163.453415,475.298492 
	C162.755707,475.425232 162.463867,475.442078 161.719727,475.473938 
	C157.132553,476.030365 152.978470,476.062378 148.814972,476.060486 
	C102.525757,476.039246 56.236530,476.059662 9.947337,476.024475 
	C7.163540,476.022339 4.237143,476.550018 1.374840,474.323608 
z"/>
<path fill="#018002" opacity="1.000000" stroke="none" 
	d="
M849.794800,474.334930 
	C907.934204,473.986542 965.998474,473.992859 1024.531372,473.999573 
	C1025.000000,507.221649 1024.967529,540.443420 1025.063843,573.664734 
	C1025.071289,576.229370 1024.842285,577.201843 1021.853455,577.095947 
	C1013.890259,576.813782 1005.910522,577.000000 997.468628,577.000000 
	C992.776672,575.815735 989.263000,573.400757 985.704712,570.909119 
	C949.023682,545.223450 912.315796,519.576050 875.573425,493.978088 
	C868.197815,488.839569 860.733948,483.826904 853.451416,478.555115 
	C851.982117,477.491516 850.303650,476.614471 849.794800,474.334930 
z"/>
<path fill="#008101" opacity="1.000000" stroke="none" 
	d="
M1025.000000,413.531342 
	C940.806580,414.001617 856.613220,414.001953 772.419800,414.010773 
	C769.758789,414.011047 767.097778,414.098145 763.934143,414.188904 
	C762.991699,414.506165 762.513184,414.631104 761.630005,414.520050 
	C744.599731,404.390289 729.066345,392.653625 712.800903,382.011810 
	C711.257629,381.002167 707.970276,379.765198 711.481445,376.664764 
	C714.314209,375.700714 716.832031,375.965027 719.316956,375.964539 
	C818.060730,375.945618 916.804504,375.943573 1015.548279,375.976257 
	C1018.489929,375.977234 1021.591858,375.357330 1024.623047,377.674286 
	C1025.000000,389.687561 1025.000000,401.375122 1025.000000,413.531342 
z"/>
<path fill="#008101" opacity="1.000000" stroke="none" 
	d="
M245.890717,414.398987 
	C242.392899,414.154449 239.233383,414.014923 236.073853,414.014404 
	C158.028336,414.001740 79.982826,414.003845 1.468655,414.001648 
	C1.000000,402.312439 1.000000,390.624878 1.000000,378.468658 
	C3.068039,375.798676 5.789494,375.965607 8.453839,375.961029 
	C22.935942,375.936096 37.418064,375.950867 51.900181,375.950592 
	C128.638763,375.949188 205.377350,375.947601 282.115936,375.957825 
	C285.109039,375.958252 288.108917,375.805298 291.520203,376.279846 
	C294.488770,377.276367 294.930847,378.786713 293.268341,380.907684 
	C292.752319,381.565948 292.140808,382.134216 291.475891,382.632782 
	C277.245941,393.302582 263.080536,404.061035 248.049820,414.267517 
	C247.232468,414.614288 246.735840,414.654327 245.890717,414.398987 
z"/>
<path fill="#FEFEFE" opacity="1.000000" stroke="none" 
	d="
M162.793625,474.191956 
	C163.386063,473.962921 163.695358,473.954132 164.467438,473.909485 
	C167.633011,472.409332 170.504501,471.917816 173.586777,471.927551 
	C193.083740,471.989136 212.581039,471.942719 232.078186,471.974030 
	C234.558868,471.978027 237.118042,471.712646 239.590454,473.765808 
	C231.508484,483.821106 221.615952,491.884247 212.156448,500.407257 
	C206.987411,505.064545 202.179520,510.088257 196.969894,514.732178 
	C184.596985,525.761536 172.849228,537.488464 160.683029,548.754456 
	C150.845200,557.864380 140.505264,566.437805 131.741730,576.704102 
	C94.979103,577.000000 57.958210,577.000000 20.468658,577.000000 
	C19.697044,573.980957 22.364908,573.221863 24.095722,571.972412 
	C48.760403,554.167358 73.567513,536.560608 98.292801,518.839783 
	C116.262230,505.960907 134.236862,493.089264 152.142502,480.121490 
	C155.351135,477.797699 158.350067,475.033142 162.793625,474.191956 
z"/>
<path fill="#FEFEFE" opacity="1.000000" stroke="none" 
	d="
M849.514893,473.971466 
	C867.053345,485.971893 884.245911,497.950348 901.417969,509.958130 
	C928.093445,528.611267 954.747131,547.295593 981.429260,565.939209 
	C986.488953,569.474487 991.638123,572.881714 996.873047,576.674011 
	C959.979126,577.000000 922.958191,577.000000 885.468628,577.000000 
	C883.952881,572.521729 879.929260,570.458435 876.986816,567.695374 
	C869.052429,560.244385 860.667969,553.275085 852.534851,546.032898 
	C836.872253,532.086121 821.245911,518.098511 805.632751,504.096252 
	C798.371826,497.584412 791.169434,491.007172 783.955383,484.443115 
	C780.415161,481.221863 776.908936,477.963165 773.304565,474.407562 
	C774.846008,471.924683 777.241272,471.992981 779.561279,471.986298 
	C799.992737,471.927399 820.424255,471.961731 840.855774,471.957794 
	C843.214661,471.957336 845.484009,472.306396 848.036316,473.617493 
	C848.689331,473.909332 848.924561,473.936005 849.514893,473.971466 
z"/>
<path fill="#018002" opacity="1.000000" stroke="none" 
	d="
M162.601807,473.968323 
	C141.330780,490.232666 119.143005,505.878052 97.000504,521.590454 
	C71.632248,539.591858 46.443508,557.846252 21.170033,575.981323 
	C20.909367,576.168396 20.557228,576.227905 20.123894,576.673462 
	C15.017997,577.000000 10.019755,576.755981 5.059717,577.086060 
	C1.766472,577.305176 0.872568,576.636963 0.892407,573.082153 
	C1.074990,540.368042 1.000000,507.652466 1.000000,474.468658 
	C54.708954,473.988312 108.417908,473.976624 162.601807,473.968323 
z"/>
<path fill="#01B101" opacity="1.000000" stroke="none" 
	d="
M1025.000000,377.531372 
	C920.274536,377.994232 815.549011,377.988464 710.346802,377.990540 
	C709.646606,378.120361 709.423279,378.242340 708.819824,378.331543 
	C697.900146,371.699646 687.728149,364.542358 677.332581,357.724060 
	C675.526001,356.539124 671.755493,355.340424 675.471191,351.664307 
	C678.307739,350.700958 680.825745,350.964844 683.310974,350.964417 
	C794.056274,350.945801 904.801575,350.944092 1015.546875,350.976105 
	C1018.488831,350.976959 1021.591064,350.357025 1024.622803,352.674072 
	C1025.000000,361.020905 1025.000000,369.041809 1025.000000,377.531372 
z"/>
<path fill="#01B101" opacity="1.000000" stroke="none" 
	d="
M294.434692,378.244751 
	C196.734756,378.002014 99.336037,378.000366 1.468657,377.999359 
	C1.000000,369.979095 1.000000,361.958191 1.000000,353.468628 
	C2.633492,351.288177 4.729976,350.979736 6.957032,350.969727 
	C10.120454,350.955475 13.283838,350.950836 16.447226,350.950806 
	C115.846001,350.949493 215.244781,350.947693 314.643555,350.958282 
	C317.803406,350.958618 320.970642,350.789246 324.551147,351.291901 
	C327.633240,352.359680 327.803223,353.884399 325.936737,355.804138 
	C323.969910,357.827118 321.586182,359.338867 319.364807,361.048035 
	C311.912018,366.782288 304.167938,372.135376 296.604462,378.348022 
	C295.747528,378.648560 295.240234,378.638000 294.434692,378.244751 
z"/>
<path fill="#008101" opacity="1.000000" stroke="none" 
	d="
M1025.000000,352.532410 
	C911.611694,353.000702 798.223328,353.000183 684.835022,353.008148 
	C681.339783,353.008392 677.844543,353.097046 673.840637,353.192047 
	C672.685547,353.743408 671.944336,353.873810 670.774109,353.694244 
	C663.349915,349.601746 656.830505,344.780518 649.993042,340.454590 
	C648.263794,339.360535 644.900513,338.074829 648.386230,334.703125 
	C651.218140,333.692841 653.738770,333.964996 656.223877,333.964600 
	C775.997131,333.945496 895.770447,333.944214 1015.543701,333.975891 
	C1018.486450,333.976654 1021.589661,333.356049 1024.622559,335.673859 
	C1025.000000,341.354919 1025.000000,346.709869 1025.000000,352.532410 
z"/>
<path fill="#008101" opacity="1.000000" stroke="none" 
	d="
M327.554932,353.299011 
	C218.806091,353.044983 110.371704,353.023804 1.468656,353.001312 
	C1.000000,347.645081 1.000000,342.290131 1.000000,336.467590 
	C2.496452,334.452911 4.384577,333.997986 6.458269,333.981659 
	C8.622937,333.964630 10.787539,333.950287 12.952220,333.950256 
	C121.355209,333.949249 229.758209,333.947845 338.161194,333.957794 
	C341.154968,333.958069 344.156250,333.796417 347.574280,334.297516 
	C351.747833,335.951508 350.114746,337.920319 348.202057,339.486725 
	C342.341583,344.286285 336.540375,349.175812 329.777191,353.422668 
	C328.897583,353.693176 328.381592,353.677979 327.554932,353.299011 
z"/>
<path fill="#02B102" opacity="1.000000" stroke="none" 
	d="
M1025.000000,335.536804 
	C899.273254,336.001007 773.546570,336.001984 647.342957,336.017914 
	C646.469910,336.412262 645.997986,336.621002 645.055054,336.612366 
	C639.828369,333.634827 635.032837,330.634583 630.547485,327.209229 
	C628.998657,326.026489 625.904419,324.739014 629.325806,321.710571 
	C632.162842,320.693726 634.684143,320.964935 637.169617,320.964539 
	C763.293701,320.945374 889.417847,320.944336 1015.541931,320.975861 
	C1018.485168,320.976593 1021.588867,320.355743 1024.622437,322.673737 
	C1025.000000,327.024536 1025.000000,331.049103 1025.000000,335.536804 
z"/>
<path fill="#02B102" opacity="1.000000" stroke="none" 
	d="
M350.455811,336.160767 
	C234.050842,335.982605 117.994080,335.990295 1.468657,335.999023 
	C1.000000,331.975464 1.000000,327.950897 1.000000,323.463196 
	C2.363848,321.615479 4.045277,321.040863 5.959545,321.003204 
	C7.458208,320.973724 8.956656,320.951477 10.455424,320.951447 
	C125.531296,320.948700 240.607178,320.947388 355.683044,320.956970 
	C357.845154,320.957153 360.014343,320.855682 362.601013,321.301636 
	C366.674744,322.918121 365.242188,324.894440 363.375183,326.633728 
	C359.854462,329.913666 355.941742,332.738617 351.936646,336.048096 
	C351.324219,336.266479 351.064148,336.306519 350.455811,336.160767 
z"/>
<path fill="#008101" opacity="1.000000" stroke="none" 
	d="
M1025.000000,322.545898 
	C895.900024,323.000458 766.800049,322.999481 637.700073,323.009857 
	C634.537659,323.010132 631.375244,323.136261 627.696594,323.272614 
	C626.506409,323.791382 625.757568,323.903687 624.583862,323.747864 
	C620.287964,321.480438 616.218323,319.537354 612.616272,316.868286 
	C611.151794,315.783112 608.191772,314.742615 611.269043,311.766113 
	C613.923462,310.721100 616.280334,310.964508 618.599915,310.964172 
	C751.079895,310.944672 883.559814,310.944550 1016.039795,310.972504 
	C1018.824951,310.973114 1021.754761,310.440948 1024.622314,312.673584 
	C1025.000000,316.030609 1025.000000,319.061188 1025.000000,322.545898 
z"/>
<path fill="#008101" opacity="1.000000" stroke="none" 
	d="
M365.789337,323.355591 
	C356.953644,323.109100 348.466644,323.014221 339.979645,323.013367 
	C227.298874,323.002045 114.618088,323.003906 1.468656,323.001251 
	C1.000000,319.969391 1.000000,316.938812 1.000000,313.454102 
	C2.496953,311.452271 4.385692,310.997589 6.460160,310.981445 
	C8.625550,310.964630 10.790879,310.950134 12.956285,310.950134 
	C130.723709,310.949280 248.491150,310.947662 366.258575,310.958344 
	C369.252777,310.958618 372.255707,310.783630 375.679932,311.322937 
	C379.145355,312.646667 378.649597,314.540466 376.875366,316.348572 
	C374.348907,318.923248 371.657806,321.342499 368.071167,323.243896 
	C367.202148,323.616699 366.674988,323.653778 365.789337,323.355591 
z"/>
<path fill="#02B102" opacity="1.000000" stroke="none" 
	d="
M1025.000000,312.555847 
	C886.941162,312.993164 748.882263,312.986328 610.346680,312.991119 
	C609.624695,313.113922 609.379456,313.225128 608.734924,313.264496 
	C605.659912,311.895813 602.845947,310.779785 600.640320,308.743317 
	C599.275391,307.483093 597.278809,306.020844 600.236694,303.753571 
	C602.902710,302.724640 605.258972,302.964447 607.579041,302.964111 
	C743.732422,302.944763 879.885864,302.944611 1016.039246,302.972595 
	C1018.824463,302.973175 1021.754456,302.440857 1024.622192,304.673523 
	C1025.000000,307.370575 1025.000000,309.741119 1025.000000,312.555847 
z"/>
<path fill="#02B102" opacity="1.000000" stroke="none" 
	d="
M378.499725,313.142761 
	C252.725021,312.996185 127.331161,312.997223 1.468657,312.999146 
	C1.000000,310.629425 1.000000,308.258881 1.000000,305.444153 
	C2.497092,303.452118 4.385978,302.995667 6.460669,302.981628 
	C8.459622,302.968109 10.458565,302.950165 12.457577,302.950134 
	C133.233658,302.949310 254.009750,302.947784 374.785828,302.958160 
	C377.613647,302.958405 380.450562,302.790863 383.711548,303.331696 
	C386.668640,304.417755 386.727814,306.006500 385.350372,308.010956 
	C384.030029,309.932281 381.906586,310.928589 379.966431,312.756378 
	C379.393494,313.107239 379.137054,313.198792 378.499725,313.142761 
z"/>
<path fill="#018101" opacity="1.000000" stroke="none" 
	d="
M1025.000000,304.562500 
	C885.895935,304.999176 746.791931,304.997192 607.687866,305.005707 
	C604.858215,305.005890 602.028564,305.128479 598.681824,305.263611 
	C596.938721,305.947052 595.698364,305.648987 594.070435,305.305939 
	C591.524353,304.034271 589.118103,303.267639 587.166626,301.760223 
	C585.716858,300.640320 583.540955,299.481567 586.067871,296.868286 
	C588.702026,295.715942 591.061646,295.964752 593.378418,295.964417 
	C734.433716,295.944672 875.488953,295.944031 1016.544250,295.969391 
	C1019.169983,295.969849 1021.921509,295.534302 1024.622070,297.673370 
	C1025.000000,300.041656 1025.000000,302.083344 1025.000000,304.562500 
z"/>
<path fill="#018101" opacity="1.000000" stroke="none" 
	d="
M387.025513,305.418762 
	C383.489075,305.176544 380.328278,305.013123 377.167450,305.012817 
	C252.090744,305.000366 127.014023,305.002747 1.468655,305.001617 
	C1.000000,302.958344 1.000000,300.916656 1.000000,298.437500 
	C2.497192,296.451996 4.386189,295.995636 6.461046,295.981598 
	C8.460136,295.968079 10.459217,295.950073 12.458366,295.950043 
	C136.241562,295.949188 260.024750,295.947693 383.807953,295.958252 
	C386.635834,295.958496 389.473114,295.787659 392.735779,296.338623 
	C395.820618,297.490601 395.664459,299.188721 394.301727,301.166901 
	C393.135925,302.859253 391.438538,303.901001 389.351501,305.107178 
	C388.487854,305.541870 387.955597,305.627411 387.025513,305.418762 
z"/>
<path fill="#04AF05" opacity="1.000000" stroke="none" 
	d="
M1025.000000,297.571533 
	C878.607666,298.004089 732.215393,298.008148 585.346436,298.028473 
	C584.614258,298.173584 584.358643,298.302429 583.671509,298.428711 
	C581.273804,297.928955 579.639526,296.749756 578.079590,295.581665 
	C576.555542,294.440491 575.438782,292.895386 577.876038,290.871338 
	C580.360474,289.771088 582.552368,290.019501 584.704346,290.019287 
	C728.814697,290.004364 872.925049,290.003784 1017.035400,290.022400 
	C1019.500732,290.022705 1022.079224,289.616730 1024.621826,291.673218 
	C1025.000000,293.714355 1025.000000,295.428711 1025.000000,297.571533 
z"/>
<path fill="#04AF05" opacity="1.000000" stroke="none" 
	d="
M395.482056,298.158020 
	C264.033661,297.993958 132.985489,297.996704 1.468657,297.999725 
	C1.000000,296.285645 1.000000,294.571289 1.000000,292.428467 
	C3.226971,289.619507 6.161162,290.018799 8.967916,290.016846 
	C35.133217,289.998779 61.298534,290.007233 87.463844,290.007111 
	C187.958633,290.006744 288.453430,290.004883 388.948212,290.016571 
	C391.776825,290.016907 394.615143,289.823761 397.886841,290.387451 
	C402.759155,293.480865 398.895050,295.412506 397.090027,297.878418 
	C396.442688,298.182800 396.162476,298.253784 395.482056,298.158020 
z"/>
<path fill="#008500" opacity="1.000000" stroke="none" 
	d="
M1024.619385,279.677155 
	C1025.000000,281.066681 1025.000000,282.133331 1025.000000,283.600006 
	C1023.503601,285.558075 1021.612366,285.990875 1019.535461,285.981964 
	C1017.370544,285.972626 1015.205200,285.992432 1013.040039,285.992462 
	C865.807556,285.993195 718.575073,285.993317 571.342590,285.988281 
	C569.012695,285.988190 566.678345,286.101196 563.880493,285.849884 
	C561.188232,286.465118 559.149109,285.784454 556.710205,284.802795 
	C554.376709,283.148346 550.389221,283.693787 551.687805,279.202576 
	C554.018921,278.186035 556.040710,278.516022 558.021851,278.515808 
	C711.154419,278.498505 864.286987,278.497284 1017.419556,278.526306 
	C1019.701965,278.526733 1022.108215,277.931244 1024.619385,279.677155 
z"/>
<path fill="#06AD06" opacity="1.000000" stroke="none" 
	d="
M561.729492,285.441315 
	C564.017883,283.291656 566.614075,284.033813 569.040283,284.033264 
	C720.714417,283.997162 872.388611,284.001556 1024.531372,284.001160 
	C1025.000000,285.066681 1025.000000,286.133331 1025.000000,287.600006 
	C1023.503235,289.558746 1021.611694,289.991669 1019.533813,289.982208 
	C1017.368164,289.972321 1015.202148,289.992645 1013.036255,289.992645 
	C884.414368,289.993286 755.792480,290.020416 627.170593,289.963745 
	C607.855286,289.955231 588.532104,290.497650 568.739624,289.506561 
	C567.303894,289.553040 566.351013,289.690582 564.955200,289.351105 
	C563.031921,288.561310 562.009521,287.515045 561.729492,285.441315 
z"/>
<path fill="#008500" opacity="1.000000" stroke="none" 
	d="
M566.822205,288.406860 
	C719.286804,288.022156 871.674744,288.010803 1024.531372,287.999725 
	C1025.000000,289.066681 1025.000000,290.133331 1025.000000,291.600006 
	C878.464661,292.001587 731.929321,292.001434 585.393982,292.018005 
	C582.569214,292.018311 579.744507,292.215973 576.390015,292.436951 
	C574.528870,293.007812 573.199158,292.837036 571.520142,292.469788 
	C569.214783,291.779877 567.346863,291.054810 566.822205,288.406860 
z"/>
<path fill="#008500" opacity="1.000000" stroke="none" 
	d="
M1.377823,284.326416 
	C1.000000,282.933319 1.000000,281.866669 1.000000,280.399994 
	C3.177826,277.738922 5.998907,278.529388 8.579085,278.528687 
	C128.511047,278.495636 248.443024,278.493225 368.375000,278.509247 
	C382.199188,278.511078 396.024139,278.358673 410.322021,278.771240 
	C413.880127,281.441528 411.122925,282.870209 409.319824,284.802917 
	C408.560364,285.145844 408.239563,285.241821 407.421204,285.395264 
	C404.287170,285.881226 401.637085,286.007599 398.963684,286.007263 
	C269.298035,285.990936 139.632370,285.997406 9.966713,285.969513 
	C7.186494,285.968933 4.252373,286.572357 1.377823,284.326416 
z"/>
<path fill="#06AD06" opacity="1.000000" stroke="none" 
	d="
M1.000000,284.399994 
	C134.180801,284.000641 267.361603,284.000763 400.542419,284.006012 
	C402.872345,284.006104 405.202240,284.067627 408.032898,284.140320 
	C408.577026,286.133240 407.416504,287.446381 405.726013,288.912659 
	C405.013763,289.207550 404.709320,289.284302 403.930664,289.414764 
	C400.823944,289.928558 398.171326,290.004303 395.502625,290.004028 
	C267.153839,289.991455 138.805038,289.997803 10.456260,289.965363 
	C7.520630,289.964600 4.416205,290.653900 1.377658,288.326294 
	C1.000000,286.933319 1.000000,285.866669 1.000000,284.399994 
z"/>
<path fill="#008500" opacity="1.000000" stroke="none" 
	d="
M1.000000,288.399994 
	C135.374710,287.995026 269.749420,287.990051 404.597198,287.984833 
	C405.821106,289.980896 404.353546,290.947266 402.876221,292.223511 
	C402.119934,292.542542 401.660583,292.589569 400.883057,292.355408 
	C396.747253,292.126617 392.919220,292.009277 389.091156,292.009003 
	C260.039886,291.999664 130.988602,292.001495 1.468657,292.000854 
	C1.000000,290.933319 1.000000,289.866669 1.000000,288.399994 
z"/>
<path fill="#008022" opacity="1.000000" stroke="none" 
	d="
M517.673584,265.959259 
	C529.086060,265.508545 540.409729,265.281952 551.733398,265.280243 
	C707.015991,265.256775 862.298584,265.264740 1017.581177,265.261139 
	C1019.746460,265.261108 1021.911743,265.211975 1024.538574,265.092896 
	C1025.000000,265.750000 1025.000000,266.500000 1025.000000,267.625000 
	C1022.603821,270.191528 1019.633667,269.458649 1016.878418,269.460419 
	C953.424561,269.501251 889.970642,269.490936 826.516785,269.491180 
	C730.419983,269.491547 634.323120,269.488098 538.226318,269.506622 
	C535.576294,269.507141 532.893555,269.183624 529.858276,270.156433 
	C528.659607,270.839966 527.804504,271.082489 526.486450,271.178345 
	C524.490967,271.036926 523.169556,270.205475 521.443909,269.425629 
	C520.071228,268.779907 519.015442,268.290710 517.940735,267.228516 
	C517.690552,266.729340 517.637695,266.508636 517.673584,265.959259 
z"/>
<path fill="#008500" opacity="1.000000" stroke="none" 
	d="
M1024.611084,273.686890 
	C1025.000000,274.750000 1025.000000,275.500000 1025.000000,276.625000 
	C1022.821655,279.261261 1020.000061,278.470306 1017.419434,278.471222 
	C921.123901,278.505432 824.828430,278.499756 728.532898,278.500092 
	C668.723022,278.500275 608.913208,278.498749 548.615845,278.512390 
	C546.182251,278.725952 544.280884,278.488586 541.964111,277.762634 
	C539.783325,276.828827 537.621033,276.460480 538.433655,273.433167 
	C540.885559,272.234863 543.079468,272.523804 545.227051,272.523590 
	C702.610779,272.506104 859.994507,272.506073 1017.378235,272.528687 
	C1019.677002,272.529022 1022.064148,272.109741 1024.611084,273.686890 
z"/>
<path fill="#07AC07" opacity="1.000000" stroke="none" 
	d="
M546.291870,277.665894 
	C549.886963,277.211029 553.546936,277.009827 557.206909,277.009491 
	C712.825500,276.995117 868.444153,276.998688 1024.531372,277.000000 
	C1025.000000,277.750000 1025.000000,278.500000 1025.000000,279.625000 
	C867.283691,280.002197 709.567322,280.004395 551.376343,280.020142 
	C550.708801,280.168915 550.515930,280.304108 549.968994,280.459381 
	C548.121765,280.195282 547.002502,279.417023 546.291870,277.665894 
z"/>
<path fill="#008022" opacity="1.000000" stroke="none" 
	d="
M1.000000,265.375000 
	C3.326067,265.088135 5.652128,265.253174 7.978203,265.253387 
	C142.454071,265.265747 276.929932,265.262329 411.405792,265.281921 
	C413.721252,265.282288 416.036652,265.544342 418.690033,265.918274 
	C419.346222,266.470184 419.627625,266.817902 419.982300,267.514282 
	C420.161041,268.278015 420.179962,268.724640 420.102417,269.502991 
	C419.922821,270.479919 419.648193,271.084045 419.414246,272.044067 
	C419.237183,272.800385 419.067383,273.210083 418.644226,273.868256 
	C418.074188,274.416290 417.666412,274.595581 416.875916,274.651398 
	C416.330200,274.537323 416.123047,274.446320 415.688049,274.103333 
	C415.258209,273.441772 415.113129,273.012970 414.974915,272.231415 
	C414.883728,271.193115 414.696960,270.557404 413.709686,269.968414 
	C410.864288,269.274323 408.356476,269.501648 405.865051,269.501434 
	C273.946442,269.489594 142.027847,269.495728 10.109248,269.463470 
	C7.321279,269.462799 4.428813,270.053986 1.383836,268.310059 
	C1.000000,267.250000 1.000000,266.500000 1.000000,265.375000 
z"/>
<path fill="#008500" opacity="1.000000" stroke="none" 
	d="
M1.380256,277.322571 
	C1.000000,276.250000 1.000000,275.500000 1.000000,274.375000 
	C3.565571,271.720886 6.708962,272.545258 9.621280,272.543823 
	C97.714325,272.500122 185.807404,272.508759 273.900482,272.508759 
	C318.529846,272.508759 363.159241,272.499664 407.788605,272.530762 
	C410.253357,272.532501 412.802460,272.071960 415.535370,273.634644 
	C415.922058,273.951904 415.984711,274.018738 416.028687,274.005981 
	C416.443970,274.911163 416.147522,275.720337 415.361603,276.839539 
	C414.066010,278.001953 412.938019,278.465729 411.155548,278.482422 
	C276.307098,278.511597 141.940674,278.496277 7.574272,278.481689 
	C5.615741,278.481476 3.550542,278.936066 1.380256,277.322571 
z"/>
<path fill="#07AC07" opacity="1.000000" stroke="none" 
	d="
M1.000000,277.375000 
	C135.331711,277.000366 269.663422,276.999481 403.995148,277.009949 
	C406.658783,277.010162 409.322418,277.143066 412.513336,277.304871 
	C413.202484,277.994720 413.136719,278.576202 412.492798,279.562805 
	C275.365631,279.986816 138.651474,279.992950 1.468657,279.999573 
	C1.000000,279.250000 1.000000,278.500000 1.000000,277.375000 
z"/>
<path fill="#10A710" opacity="1.000000" stroke="none" 
	d="
M528.090698,270.124573 
	C528.800720,267.275085 530.926331,268.026581 532.624634,268.005463 
	C538.622925,267.930878 544.622742,267.981506 550.622009,267.981598 
	C708.435608,267.983734 866.249146,267.985474 1024.531372,267.993652 
	C1025.000000,268.444458 1025.000000,268.888885 1025.000000,269.666687 
	C1022.603882,272.191559 1019.633850,271.458710 1016.878662,271.460449 
	C952.260620,271.501129 887.642517,271.490967 823.024475,271.491150 
	C729.594788,271.491455 636.165039,271.490692 542.735352,271.494141 
	C540.237671,271.494232 537.739075,271.434845 534.784546,271.615662 
	C534.032410,271.724762 533.738098,271.782074 533.021729,271.962646 
	C532.314819,272.118195 532.029907,272.150543 531.322754,272.155945 
	C530.355286,272.024902 529.837524,271.843445 529.027405,271.347351 
	C528.542603,270.908813 528.378906,270.703491 528.090698,270.124573 
z"/>
<path fill="#008A00" opacity="1.000000" stroke="none" 
	d="
M532.102417,271.589783 
	C533.810486,269.222839 536.279297,270.035828 538.515869,270.035309 
	C700.364807,269.996552 862.213806,269.999969 1024.531372,270.000000 
	C1025.000000,270.444458 1025.000000,270.888885 1025.000000,271.666687 
	C1022.581970,273.685638 1019.825439,272.966644 1017.224182,272.967255 
	C859.624573,273.003754 702.024902,272.998596 544.425293,273.010345 
	C541.932861,273.010529 539.425903,272.787689 536.451782,273.339508 
	C534.530701,273.522919 533.308167,273.121246 532.102417,271.589783 
z"/>
<path fill="#0DA80F" opacity="1.000000" stroke="none" 
	d="
M534.129211,272.830444 
	C536.793945,272.347351 539.610779,272.023285 542.427551,272.022858 
	C702.972595,271.998169 863.517700,272.000397 1024.531372,272.000000 
	C1025.000000,272.444458 1025.000000,272.888885 1025.000000,273.666687 
	C862.944092,274.003174 700.888123,274.006348 538.356262,274.023438 
	C537.692993,274.170990 537.505615,274.304626 536.972778,274.462006 
	C535.674072,274.335846 534.882080,273.904816 534.129211,272.830444 
z"/>
<path fill="#10A710" opacity="1.000000" stroke="none" 
	d="
M1.000000,268.333313 
	C137.912399,267.993988 274.824799,267.984863 411.737183,268.017731 
	C413.438324,268.018127 415.472717,267.217133 416.821777,269.619965 
	C414.464844,272.064362 411.522522,271.466919 408.747131,271.468353 
	C348.470459,271.499451 288.193787,271.491150 227.917099,271.491241 
	C155.152161,271.491333 82.387222,271.498016 9.622300,271.466278 
	C6.997490,271.465149 4.274283,271.997528 1.389578,270.313477 
	C1.000000,269.555542 1.000000,269.111115 1.000000,268.333313 
z"/>
<path fill="#008A00" opacity="1.000000" stroke="none" 
	d="
M1.000000,270.333344 
	C139.331116,270.000488 277.662231,270.000946 416.446228,270.006348 
	C416.767426,270.566803 416.635712,271.122314 416.268158,271.854736 
	C414.269531,273.368622 412.202332,272.982178 410.236603,272.982422 
	C275.750916,273.000488 141.265244,272.999756 6.779576,272.988556 
	C5.123928,272.988434 3.439056,273.181885 1.417106,272.275146 
	C1.000000,271.555573 1.000000,271.111115 1.000000,270.333344 
z"/>
<path fill="#0DA80F" opacity="1.000000" stroke="none" 
	d="
M1.000000,272.333313 
	C139.031418,272.002655 277.062836,272.005310 415.563293,272.019775 
	C416.015991,272.458740 415.999695,272.885834 415.952698,273.632446 
	C304.424225,273.967957 192.926376,273.984650 81.428528,273.999451 
	C54.929028,274.002960 28.429525,274.000000 1.465013,274.000000 
	C1.000000,273.555542 1.000000,273.111115 1.000000,272.333313 
z"/>
<path fill="#959CA0" opacity="1.000000" stroke="none" 
	d="
M517.306213,265.590332 
	C517.762390,265.630585 517.931274,265.868896 517.884399,266.007202 
	C516.621704,267.689789 514.937012,267.457306 513.291565,267.320190 
	C512.948730,267.291656 512.646240,267.188477 512.365295,267.235260 
	C512.450684,267.284760 512.536011,267.334290 512.888794,267.553040 
	C513.894714,268.467804 514.581726,269.227814 513.559204,270.647827 
	C503.288879,272.163574 493.320007,271.177856 483.375092,271.478851 
	C481.217010,271.544189 479.054413,271.509705 476.441895,271.400452 
	C473.681244,270.993011 471.725250,269.344604 468.831451,269.504456 
	C457.050598,269.704254 445.696747,269.028351 433.965149,270.012634 
	C433.087280,270.438751 432.574341,270.643921 431.627319,270.797913 
	C430.962463,270.767273 430.701691,270.712524 430.097900,270.459808 
	C429.404816,269.867096 429.157898,269.416229 428.976868,268.530396 
	C428.972198,267.646149 429.119720,267.173462 429.613281,266.447449 
	C452.553284,264.974396 475.262024,265.342316 497.976959,265.938934 
	C504.260254,266.103943 510.558594,265.695435 517.306213,265.590332 
z"/>
<path fill="#FDFBF9" opacity="1.000000" stroke="none" 
	d="
M429.404083,266.086945 
	C429.856781,266.564575 429.867188,266.970428 429.881409,267.680756 
	C426.714661,270.280945 423.343109,269.738708 419.589600,268.362091 
	C419.164917,267.619659 419.086365,267.204865 419.017883,266.471191 
	C422.339264,266.106567 425.650543,266.060883 429.404083,266.086945 
z"/>
<path fill="#B2B2B2" opacity="1.000000" stroke="none" 
	d="
M772.172729,473.561707 
	C717.800293,473.941559 663.524536,473.980408 609.248718,473.996399 
	C580.445618,474.004913 551.642517,473.973724 522.364868,473.928955 
	C519.794312,471.924622 519.361938,469.283020 519.187744,466.639374 
	C518.155884,450.982117 515.902161,435.440308 514.803528,419.789490 
	C514.663330,417.792419 514.355042,415.836517 515.782959,413.652649 
	C518.155762,411.831146 520.525330,411.968140 522.850037,411.967041 
	C580.646362,411.940369 638.442749,411.953186 696.239075,411.953796 
	C697.907959,411.953827 699.570251,412.000977 701.649536,412.441650 
	C702.381714,412.501923 702.666870,412.518768 703.364075,412.562836 
	C706.655396,413.621582 708.959167,415.587067 711.155212,417.561127 
	C730.466736,434.920441 750.183838,451.822571 769.403687,469.284454 
	C770.633301,470.401642 772.035461,471.375153 772.172729,473.561707 
z"/>
<path fill="#B2B2B2" opacity="1.000000" stroke="none" 
	d="
M491.438904,473.526550 
	C462.151764,473.928772 433.189606,473.986267 404.227417,473.995483 
	C350.129791,474.012726 296.032196,474.001953 241.465790,473.996033 
	C240.342422,472.398651 241.470520,471.494019 242.397964,470.600189 
	C253.499222,459.901031 264.804169,449.417450 276.021088,438.841187 
	C285.062042,430.316620 294.085541,421.769226 303.427002,412.995483 
	C304.329773,412.617279 304.889801,412.526428 305.925812,412.508911 
	C309.187225,412.109680 311.993958,411.933624 314.827667,411.934753 
	C371.018219,411.956635 427.208771,411.943512 483.399323,411.970734 
	C486.365051,411.972168 489.405182,411.530548 492.667969,413.137634 
	C496.665466,418.716827 495.297516,424.767151 494.788696,430.314148 
	C493.830719,440.757568 494.276184,451.174225 494.021362,461.598328 
	C493.923950,465.583649 493.616119,469.520752 491.438904,473.526550 
z"/>
<path fill="#F60402" opacity="1.000000" stroke="none" 
	d="
M302.279541,413.638428 
	C302.550110,417.938995 299.167114,419.619324 296.796600,421.513428 
	C287.964142,428.570892 280.649017,437.195343 272.143158,444.597595 
	C262.771240,452.753571 254.122757,461.739380 245.120956,470.323700 
	C243.936325,471.453369 242.525970,472.346405 241.108566,473.669128 
	C240.807892,473.987549 240.618805,473.985901 240.160339,474.072449 
	C215.157242,474.093964 190.423508,474.027283 165.309982,473.917145 
	C173.772293,465.586121 184.101593,459.265167 193.800995,452.116608 
	C210.822769,439.571411 227.969009,427.195129 245.307770,414.488647 
	C245.916290,414.225403 246.280182,414.221558 246.886383,414.066895 
	C250.180878,412.438049 253.390808,411.909637 256.787292,411.929413 
	C269.596344,412.003937 282.406067,411.939636 295.215485,411.972839 
	C297.533081,411.978851 299.906616,411.790405 302.279541,413.638428 
z"/>
<path fill="#F60402" opacity="1.000000" stroke="none" 
	d="
M772.371826,473.898865 
	C762.141052,464.976837 752.244019,455.998657 742.257263,447.121338 
	C735.713196,441.304169 728.997925,435.679810 722.436218,429.881958 
	C716.753235,424.860504 711.178589,419.716400 705.583435,414.309753 
	C707.296082,411.915100 709.680542,411.994202 711.998291,411.985443 
	C725.928833,411.932800 739.859680,411.984497 753.790222,411.942566 
	C756.348816,411.934845 758.670837,412.763519 761.517334,413.602112 
	C762.286621,413.942963 762.597656,414.103119 763.170044,414.248169 
	C777.328735,423.826355 791.328125,433.275848 805.095154,443.052582 
	C819.410828,453.218903 834.334595,462.520233 848.314697,473.620789 
	C823.676208,473.927734 798.898438,473.972809 773.671143,474.055847 
	C773.036987,474.024353 772.852295,473.954956 772.371826,473.898865 
z"/>
<path fill="#FEFEFE" opacity="1.000000" stroke="none" 
	d="
M491.572998,473.937561 
	C491.753357,454.269928 492.392731,434.646820 493.070618,414.563171 
	C493.664948,413.227600 494.496277,412.535645 495.459442,412.472992 
	C502.081390,412.042297 508.751587,410.799652 515.559875,413.729828 
	C517.906311,433.763458 519.938904,453.405212 521.930908,473.472229 
	C511.937531,473.925659 501.984802,473.953888 491.572998,473.937561 
z"/>
<path fill="#FDFDFB" opacity="1.000000" stroke="none" 
	d="
M761.835266,413.479126 
	C743.457886,413.867249 724.940125,413.951721 706.016602,414.014648 
	C705.350464,413.975800 705.090088,413.958527 704.439331,413.967651 
	C696.312683,410.486450 690.921448,403.979248 684.563660,398.715118 
	C678.556152,393.741058 672.750000,388.526062 666.875366,383.396942 
	C665.137756,381.879852 661.988281,380.228668 665.198608,376.798889 
	C676.279114,375.216949 687.031067,376.296722 697.756592,375.993103 
	C701.046997,375.899902 704.394958,375.675934 707.841187,377.608826 
	C708.494202,377.917816 708.768555,377.948151 709.456482,377.988403 
	C727.144958,389.724060 744.419922,401.449768 761.835266,413.479126 
z"/>
<path fill="#FDFDFB" opacity="1.000000" stroke="none" 
	d="
M303.002533,414.000214 
	C284.422119,413.999573 266.235657,413.987793 247.588974,413.946045 
	C255.850677,406.231445 265.681793,400.021393 274.915771,393.017395 
	C281.234467,388.224670 287.565735,383.448456 294.012421,378.334259 
	C294.717255,377.982513 295.301056,377.961365 296.322083,377.907593 
	C298.182129,376.594238 299.896057,376.025421 301.764160,376.034943 
	C313.991364,376.097198 326.222809,375.604187 338.854309,376.407471 
	C343.170258,378.426941 340.918030,380.667297 339.284821,382.332947 
	C332.227356,389.530762 325.507660,397.103729 317.662445,403.468414 
	C313.581848,406.778961 310.753387,411.591797 305.267578,413.776550 
	C304.441650,413.988678 303.919098,413.988892 303.002533,414.000214 
z"/>
<path fill="#F00704" opacity="1.000000" stroke="none" 
	d="
M708.081482,377.642639 
	C693.784851,377.944366 679.349854,378.001221 664.456238,378.161621 
	C663.576477,378.585815 663.101196,378.751526 662.191284,378.708588 
	C652.690796,371.867950 644.292053,364.212891 635.665039,356.835754 
	C634.270630,355.643372 632.405334,354.058960 635.208374,351.792206 
	C647.125793,350.897125 658.672791,349.789429 670.577148,352.576263 
	C671.596069,352.896820 672.167664,353.067261 673.035645,353.238617 
	C682.568787,359.455444 691.789551,365.695282 701.052979,371.871246 
	C703.520386,373.516235 706.020630,375.087799 708.081482,377.642639 
z"/>
<path fill="#F00704" opacity="1.000000" stroke="none" 
	d="
M341.126404,378.291260 
	C326.384216,378.054199 311.971497,378.012115 297.159058,377.922485 
	C298.972076,373.570770 303.411530,371.761536 306.927399,368.955536 
	C313.481628,363.724609 320.257111,358.770905 327.090485,353.383972 
	C327.640167,353.055389 328.039856,353.044617 328.725342,352.924896 
	C333.196167,350.866241 337.648529,350.848572 342.129456,350.964844 
	C349.561981,351.157776 357.005432,350.606506 364.844879,351.398315 
	C368.771423,353.076172 367.181274,355.176910 365.648254,356.958832 
	C362.853149,360.207794 359.908936,363.380615 356.519958,365.992584 
	C351.668396,369.731750 347.912689,374.649261 342.581970,378.360046 
	C341.966431,378.489166 341.711182,378.487701 341.126404,378.291260 
z"/>
<path fill="#FDFBF9" opacity="1.000000" stroke="none" 
	d="
M670.854126,352.439941 
	C659.147339,352.826263 647.270142,352.926117 634.957031,353.020691 
	C634.380188,353.247803 634.239319,353.480255 633.694336,353.736176 
	C625.956665,350.033081 620.222778,344.230194 614.134033,338.901917 
	C613.081482,337.980865 611.894287,336.652435 613.980957,334.926697 
	C624.203186,333.783203 634.052124,332.892029 644.226807,335.629700 
	C645.127625,335.910645 645.623474,335.959778 646.492676,336.020905 
	C654.805298,341.406403 662.744568,346.779968 670.854126,352.439941 
z"/>
<path fill="#FDFBF9" opacity="1.000000" stroke="none" 
	d="
M366.820404,353.315186 
	C354.348969,352.999725 342.143921,352.984863 329.475037,352.892944 
	C335.745728,347.148407 342.571625,341.598633 349.983337,336.309387 
	C350.338196,335.970581 350.568787,335.966217 351.144104,335.932495 
	C352.972595,334.776489 354.629395,334.036133 356.503387,334.049805 
	C364.571747,334.108612 372.648682,333.574066 381.118561,334.500000 
	C385.260895,336.840393 382.625305,338.899994 381.134186,340.549316 
	C377.157074,344.948273 372.862061,349.052582 368.243469,353.362732 
	C367.620300,353.568512 367.353577,353.592133 366.820404,353.315186 
z"/>
<path fill="#E90A07" opacity="1.000000" stroke="none" 
	d="
M644.479309,335.595642 
	C634.450378,335.915588 624.268982,335.969666 613.631958,336.068970 
	C612.948853,336.240051 612.721436,336.365906 612.102783,336.486267 
	C606.985596,333.966980 603.008911,330.435242 599.008972,326.963531 
	C597.630859,325.767365 595.561523,324.431580 598.014038,321.899475 
	C606.988586,320.665375 615.573425,320.096039 624.497620,322.685791 
	C625.491394,323.032013 626.047241,323.222137 626.891724,323.376892 
	C632.419495,328.018982 639.177795,330.523468 644.479309,335.595642 
z"/>
<path fill="#E90A07" opacity="1.000000" stroke="none" 
	d="
M383.227051,336.310364 
	C372.694580,336.084320 362.518829,336.036987 351.915955,335.946411 
	C354.990234,330.673218 360.786316,328.046936 365.312195,323.496979 
	C365.804230,323.128052 366.167786,323.095764 366.785950,322.946136 
	C375.433289,319.601807 384.099854,321.160645 393.103821,321.490814 
	C396.251587,322.856934 395.388977,324.733795 394.276367,326.496796 
	C391.871338,330.307831 388.729767,333.447968 384.747589,336.280243 
	C384.114716,336.454559 383.849274,336.471832 383.227051,336.310364 
z"/>
<path fill="#FDFBF9" opacity="1.000000" stroke="none" 
	d="
M624.803223,322.526367 
	C616.072266,322.905243 607.208984,322.968658 597.906616,323.017120 
	C597.295288,323.213837 597.123047,323.425446 596.545288,323.694092 
	C591.625000,322.221802 588.348877,318.900208 584.899292,315.865082 
	C583.941895,315.022736 583.119812,313.796692 584.640015,312.154114 
	C592.485291,310.546936 599.959229,310.240204 607.740601,312.587708 
	C608.385437,312.912842 608.681458,312.946381 609.423706,312.991333 
	C614.803650,316.072144 619.737366,319.141541 624.803223,322.526367 
z"/>
<path fill="#FDFBF9" opacity="1.000000" stroke="none" 
	d="
M394.933624,323.242554 
	C385.720520,322.989777 376.843750,322.975769 367.503723,322.895264 
	C370.654327,319.770660 374.268188,316.712494 378.000427,313.324768 
	C378.326965,312.985260 378.535095,312.975372 379.052429,312.919983 
	C380.547974,311.555298 382.127411,311.081757 383.797089,311.084381 
	C389.857269,311.093964 395.931641,310.527496 402.388824,311.610382 
	C405.387482,313.154785 404.289886,315.027405 403.335083,316.726227 
	C401.789520,319.476074 399.463135,321.517853 396.485596,323.406128 
	C395.818604,323.518311 395.544250,323.499817 394.933624,323.242554 
z"/>
<path fill="#E90A07" opacity="1.000000" stroke="none" 
	d="
M608.077637,312.600159 
	C600.373779,312.932892 592.658142,312.986450 584.481323,313.121155 
	C583.783630,313.318329 583.546936,313.434418 582.913696,313.554810 
	C579.501587,312.509796 577.097351,310.491394 574.761108,308.443787 
	C573.639404,307.460602 571.915955,306.397949 573.660461,304.144470 
	C580.776672,302.331543 587.491577,302.536743 594.589233,304.600098 
	C595.895996,304.915955 596.766174,305.144714 597.900513,305.353363 
	C600.688660,308.762634 605.256714,309.295654 608.077637,312.600159 
z"/>
<path fill="#E90A07" opacity="1.000000" stroke="none" 
	d="
M404.350403,313.332520 
	C396.054993,313.111847 388.145966,313.041016 379.799316,312.922302 
	C380.709320,309.613647 384.387817,308.629578 386.437775,305.555725 
	C386.993958,305.327911 387.307983,305.257660 387.811340,304.939392 
	C394.822449,302.003937 401.864136,302.901611 409.297974,303.568481 
	C412.094910,304.854004 411.383148,306.542053 410.475830,308.217438 
	C409.447571,310.116150 408.029388,311.691040 405.925018,313.167603 
	C405.283081,313.399017 405.009949,313.440674 404.350403,313.332520 
z"/>
<path fill="#FDFBF9" opacity="1.000000" stroke="none" 
	d="
M594.767273,304.398590 
	C588.145264,304.806519 581.264709,304.925842 573.947998,305.027222 
	C573.346008,305.235199 573.180237,305.461060 572.597534,305.736328 
	C568.502747,303.783051 563.707214,303.026825 563.405273,297.343872 
	C569.864075,295.412598 575.963562,295.347076 582.409790,297.642670 
	C583.143372,297.900024 583.487244,297.944550 584.350464,298.016907 
	C587.447510,301.076141 591.466858,301.816345 594.767273,304.398590 
z"/>
<path fill="#FDFBF9" opacity="1.000000" stroke="none" 
	d="
M411.010437,305.233276 
	C403.412292,304.995422 396.185242,304.976990 388.494446,304.892090 
	C390.313660,302.765747 392.596619,300.705872 394.980682,298.318604 
	C395.288940,297.978790 395.496033,297.966339 396.012268,297.917603 
	C402.145020,294.602875 408.311249,296.070709 414.823334,296.759338 
	C418.794525,300.825653 414.751740,302.514862 412.595154,305.091644 
	C411.950531,305.371399 411.666016,305.412048 411.010437,305.233276 
z"/>
<path fill="#C51A13" opacity="1.000000" stroke="none" 
	d="
M582.696777,297.631256 
	C576.518188,297.921173 570.236877,297.986816 563.494141,298.124573 
	C562.793762,298.315796 562.554810,298.434845 561.914185,298.560425 
	C558.729736,296.569946 553.969116,296.627899 554.519165,291.254089 
	C560.370789,289.039703 565.795471,290.200195 571.654175,291.454712 
	C573.169250,291.813538 574.246643,292.200562 575.592102,292.570007 
	C578.104858,294.170563 580.349426,295.788757 582.696777,297.631256 
z"/>
<path fill="#C51A13" opacity="1.000000" stroke="none" 
	d="
M416.540619,298.413086 
	C409.816620,298.231567 403.503815,298.123657 396.756226,297.948547 
	C396.913147,295.650208 398.742706,294.346985 400.373901,292.466736 
	C400.920166,292.209869 401.231323,292.117218 401.737061,291.813049 
	C407.448700,289.190735 413.162720,289.880829 419.283325,290.659027 
	C423.122314,293.824860 420.119019,295.697876 418.108032,298.033936 
	C417.487823,298.335297 417.219818,298.410980 416.540619,298.413086 
z"/>
<path fill="#C51A13" opacity="1.000000" stroke="none" 
	d="
M561.476196,285.010773 
	C562.394226,285.771027 562.999329,286.546814 563.722961,287.590546 
	C561.656921,290.600708 558.549438,289.820190 555.708801,289.924042 
	C553.766724,289.995056 551.854675,289.336945 549.439087,289.468750 
	C548.686951,289.453644 548.386353,289.446045 547.641968,289.358154 
	C544.960693,287.959351 542.130981,287.244385 542.096069,283.646698 
	C547.036194,280.720612 551.624451,282.773682 556.669556,283.445007 
	C558.461121,283.948151 559.812195,284.487213 561.476196,285.010773 
z"/>
<path fill="#FDEEEA" opacity="1.000000" stroke="none" 
	d="
M556.775635,283.227844 
	C552.543945,284.727600 547.867432,283.599548 542.820557,284.030396 
	C541.944519,284.381409 541.453064,284.622375 540.487427,284.748138 
	C537.989014,283.512543 535.095032,283.176971 535.093811,279.646515 
	C539.580505,278.080566 543.775940,277.786438 548.330078,279.639038 
	C549.070190,279.888397 549.435852,279.924805 550.351685,279.997437 
	C552.421448,281.638916 554.546326,282.131500 556.775635,283.227844 
z"/>
<path fill="#FDEEEA" opacity="1.000000" stroke="none" 
	d="
M547.915894,288.615967 
	C552.928772,288.154846 557.933899,288.068695 563.390198,287.920532 
	C564.605164,287.911865 565.368958,287.965240 566.515747,288.026031 
	C567.805481,289.962738 569.751770,290.311859 571.773315,291.228699 
	C566.530945,292.700806 560.884888,291.607239 554.851318,292.023956 
	C554.262451,292.224640 554.115601,292.431213 553.592651,292.693268 
	C550.870056,292.311371 549.036804,291.148804 547.915894,288.615967 
z"/>
<path fill="#FDEEEA" opacity="1.000000" stroke="none" 
	d="
M409.517059,284.379089 
	C409.331024,282.297394 411.041168,281.792633 411.984131,280.295105 
	C412.079773,279.980652 412.551788,279.934326 412.782837,279.880920 
	C417.550293,277.423431 422.284821,278.506836 427.363129,279.308533 
	C429.015503,281.673187 427.950958,283.152740 426.042480,284.759155 
	C420.356232,285.610840 415.082153,286.097046 409.517059,284.379089 
z"/>
<path fill="#C51A13" opacity="1.000000" stroke="none" 
	d="
M409.033142,284.096252 
	C414.417145,284.038574 419.641205,284.038971 425.522003,284.393555 
	C426.167328,286.454681 425.268768,287.682434 423.668762,288.924561 
	C423.038696,289.199249 422.769592,289.275665 422.079651,289.415588 
	C416.688934,289.926208 411.684753,290.931885 406.629517,288.207581 
	C406.982635,286.802277 407.593414,285.761871 408.368896,284.450806 
	C408.533661,284.180145 408.873138,284.154358 409.033142,284.096252 
z"/>
<path fill="#FDEEEA" opacity="1.000000" stroke="none" 
	d="
M406.046906,287.882080 
	C411.611176,287.905914 416.850464,287.969208 422.551758,288.113464 
	C424.203888,289.755341 423.274384,290.767029 421.421173,291.846710 
	C414.790985,291.962982 408.841064,291.948212 402.428223,291.824097 
	C402.946320,290.674438 403.927368,289.634216 404.989319,288.289307 
	C405.287476,287.963593 405.504700,287.942596 406.046906,287.882080 
z"/>
<path fill="#FDEEEA" opacity="1.000000" stroke="none" 
	d="
M529.842224,270.731384 
	C530.222412,270.935699 530.396729,271.022675 530.813599,271.272583 
	C528.435852,275.093353 524.584412,272.856110 520.880981,273.454956 
	C519.831421,273.416840 519.233643,273.347290 518.205566,273.088684 
	C516.687256,272.277740 515.727173,271.528412 516.083252,269.722290 
	C519.083252,267.794739 521.715576,269.331665 524.805664,269.705750 
	C525.920105,269.867157 526.606384,269.873413 527.629395,269.815338 
	C527.966064,269.750977 528.406921,269.972290 528.652466,269.995972 
	C529.143372,270.218719 529.389465,270.416870 529.842224,270.731384 
z"/>
<path fill="#FDFBF9" opacity="1.000000" stroke="none" 
	d="
M513.059692,268.269958 
	C511.063446,268.037323 509.356079,268.411530 508.073700,266.191315 
	C511.185059,266.191315 514.072021,266.191315 517.398254,266.168427 
	C518.465027,267.342072 519.691284,266.810089 520.876831,267.303894 
	C518.883301,270.215881 516.114441,268.848328 513.059692,268.269958 
z"/>
<path fill="#C51A13" opacity="1.000000" stroke="none" 
	d="
M512.688843,268.308472 
	C515.197449,268.003052 517.750122,267.947906 520.713989,267.694092 
	C522.334717,268.118103 523.544250,268.740723 524.993835,269.612091 
	C522.453308,269.914490 519.672791,269.968170 516.445496,270.115540 
	C515.576538,270.466736 515.124817,270.554321 514.346619,270.236786 
	C513.613831,269.537994 513.173401,269.048370 512.688843,268.308472 
z"/>
<path fill="#C51A13" opacity="1.000000" stroke="none" 
	d="
M548.633057,279.634064 
	C544.397827,279.922241 540.091125,279.992493 535.328735,280.191589 
	C534.399841,280.612305 533.885010,280.749084 532.927368,280.649017 
	C531.152893,279.662811 529.522461,278.944855 530.179810,276.524567 
	C534.113220,274.561676 537.669434,275.918121 541.664795,276.558777 
	C543.271729,276.865387 544.459167,277.115845 545.936768,277.342407 
	C547.005188,278.017731 547.783447,278.716949 548.633057,279.634064 
z"/>
<path fill="#FDEEEA" opacity="1.000000" stroke="none" 
	d="
M541.816650,276.348816 
	C538.490784,276.758362 534.897278,276.901794 530.877319,277.037659 
	C530.001770,277.383606 529.503235,277.641876 528.528992,277.833038 
	C526.120239,277.326599 524.257507,276.648163 523.988403,273.949524 
	C527.764954,272.814331 531.315186,272.374207 535.251343,273.648438 
	C535.993286,273.884369 536.370667,273.915039 537.314209,273.991516 
	C538.777344,275.303680 540.184265,275.655426 541.816650,276.348816 
z"/>
<path fill="#FDEEEA" opacity="1.000000" stroke="none" 
	d="
M415.204041,277.107727 
	C415.236267,276.050262 415.527374,275.381287 415.945587,274.352783 
	C416.375031,273.974854 416.677185,273.953125 417.203033,273.887756 
	C420.987701,271.897217 424.759613,272.401001 428.956848,273.110870 
	C430.639984,274.390991 430.278534,275.580078 429.340942,277.146423 
	C424.503784,278.960022 419.982880,279.178925 415.204041,277.107727 
z"/>
<path fill="#C51A13" opacity="1.000000" stroke="none" 
	d="
M430.179443,273.086670 
	C426.102325,273.888672 422.270782,273.930420 417.933075,273.909790 
	C417.511505,273.342346 417.596069,272.837311 417.803772,271.968323 
	C421.080475,269.950623 424.467224,270.618408 428.197876,270.688171 
	C428.866089,270.869598 429.122864,270.976959 429.712769,271.334900 
	C430.172302,271.832458 430.298645,272.079468 430.179443,273.086670 
z"/>
<path fill="#FDEEEA" opacity="1.000000" stroke="none" 
	d="
M430.128540,271.807922 
	C426.195679,272.056549 422.505737,271.990540 418.371338,271.764465 
	C418.055878,271.116882 418.184875,270.629333 418.537659,270.010010 
	C422.159698,268.435181 425.633636,268.876160 429.497345,269.751831 
	C429.881256,270.041199 429.915771,270.068420 429.936340,270.060638 
	C430.364075,270.455566 430.502228,270.935730 430.128540,271.807922 
z"/>
<path fill="#C51A13" opacity="1.000000" stroke="none" 
	d="
M429.884064,269.698608 
	C426.491058,270.028870 423.100830,270.016541 419.236023,269.941223 
	C418.860413,269.466064 418.959381,269.053955 419.150940,268.338135 
	C422.496490,268.023956 425.749512,268.013489 429.443878,267.994110 
	C429.885773,268.442108 429.886322,268.899048 429.884064,269.698608 
z"/>
<path fill="#C51A13" opacity="1.000000" stroke="none" 
	d="
M414.745270,276.766998 
	C419.305847,276.837280 423.666595,276.955353 428.635620,277.413452 
	C429.260040,278.203156 429.183197,278.636444 428.534607,279.500458 
	C423.294067,279.954498 418.532776,279.961426 413.392700,279.897949 
	C413.010071,279.222046 413.006195,278.616547 413.021484,277.703400 
	C413.542206,277.202057 414.043793,277.008423 414.745270,276.766998 
z"/>
<path fill="#C51A13" opacity="1.000000" stroke="none" 
	d="
M535.568970,273.659241 
	C532.050110,273.906708 528.484253,273.959747 524.469177,274.095764 
	C523.618347,274.545624 523.145874,274.743439 522.210693,274.729034 
	C520.770813,274.310303 519.988525,273.686340 520.078613,272.266602 
	C523.713257,271.974091 527.053345,271.934448 530.724854,271.665161 
	C531.056213,271.435516 531.471069,271.328674 531.664551,271.239624 
	C532.398499,271.592102 532.938904,272.033630 533.728271,272.497803 
	C534.492126,272.835205 535.007141,273.149994 535.568970,273.659241 
z"/>
<path fill="#008A00" opacity="1.000000" stroke="none" 
	d="
M529.892944,270.665070 
	C529.720337,270.751221 529.392517,270.653778 528.981384,270.287994 
	C529.199036,270.135254 529.479004,270.289185 529.892944,270.665070 
z"/>
<path fill="#808080" opacity="1.000000" stroke="none" 
	d="
M429.930237,272.114594 
	C429.916412,271.662994 429.947235,271.203461 429.967468,270.398376 
	C430.397919,270.053253 430.838959,270.053619 431.610260,270.035278 
	C433.659851,268.615417 435.717102,269.024109 437.664185,269.017242 
	C447.913422,268.981079 458.162811,268.999512 468.889526,269.002258 
	C470.957672,268.937622 472.516479,269.148407 474.479889,269.747192 
	C487.639740,269.979462 500.373566,270.009003 513.580811,270.033081 
	C514.489319,270.048004 514.924316,270.068359 515.679077,270.148987 
	C516.610657,270.623596 517.222656,271.037933 517.924683,271.725830 
	C516.374146,273.935364 514.099426,273.449219 512.021301,273.461426 
	C501.153656,273.525360 490.285614,273.484558 478.931580,273.492920 
	C476.827545,273.493317 475.209564,273.490295 473.104828,273.493042 
	C460.742035,273.485901 448.865997,273.513519 436.990112,273.471069 
	C434.874847,273.463531 432.677368,273.831818 430.323181,272.323242 
	C429.934326,272.025574 429.974823,272.106628 429.930237,272.114594 
z"/>
<path fill="#B2B2B2" opacity="1.000000" stroke="none" 
	d="
M470.202698,269.622253 
	C457.700165,269.926331 445.295807,269.966675 432.415955,270.011780 
	C432.574432,267.411102 434.715790,268.091125 436.408569,268.085449 
	C447.022614,268.049744 457.636902,268.090149 468.732666,268.127075 
	C469.682953,268.456329 470.162323,268.754333 470.202698,269.622253 
z"/>
<path fill="#FEFEFE" opacity="1.000000" stroke="none" 
	d="
M470.502625,269.929749 
	C469.834473,269.470154 469.564392,269.054321 469.254272,268.393616 
	C471.155029,267.929565 472.996460,268.182037 474.781128,269.622864 
	C473.570831,269.957794 472.235748,269.965637 470.502625,269.929749 
z"/>
<path fill="#808080" opacity="1.000000" stroke="none" 
	d="
M340.714752,378.408020 
	C340.986664,378.038422 341.176453,377.980560 341.662659,377.949951 
	C344.310516,376.629242 346.786652,375.931854 349.552032,375.933472 
	C396.114166,375.960388 442.676300,375.931213 489.238464,375.970703 
	C490.070587,375.971405 490.900421,376.020813 492.211670,376.197815 
	C498.873932,375.813690 505.048157,375.823608 511.707550,376.170044 
	C536.643677,375.760620 561.095703,376.010193 585.547119,375.960236 
	C608.004456,375.914337 630.461914,375.958191 652.919312,375.938263 
	C655.774841,375.935699 658.581787,375.992798 661.562134,377.752625 
	C662.444153,378.026184 662.895508,378.050720 663.672241,378.170166 
	C673.377625,387.428864 683.565063,395.672791 693.505066,404.199463 
	C696.992249,407.190826 700.379883,410.298370 703.930908,413.673462 
	C641.641296,414.011200 579.233826,414.028381 516.350037,414.083618 
	C508.591858,414.087982 501.309937,414.054291 493.568573,414.061584 
	C431.706696,414.068970 370.304260,414.035339 308.901825,414.001495 
	C307.903412,414.000946 306.904968,413.997314 305.435394,413.991821 
	C313.754944,403.578003 324.996094,395.668274 334.032349,385.503082 
	C336.126251,383.147583 338.427032,380.976013 340.714752,378.408020 
z"/>
<path fill="#B3B2B2" opacity="1.000000" stroke="none" 
	d="
M661.886536,377.682373 
	C612.268188,377.986786 562.543640,377.971893 512.342834,377.927155 
	C511.319550,377.537018 510.502960,377.247192 510.358185,376.686798 
	C508.330902,368.838684 505.737732,361.041748 508.025391,352.430786 
	C510.489960,350.790070 512.855225,350.967377 515.171143,350.965759 
	C551.407898,350.940491 587.644714,350.966522 623.881409,350.923218 
	C626.778015,350.919739 629.465088,351.573334 632.574707,352.749573 
	C633.262817,352.979492 633.514282,352.972656 634.143433,352.990601 
	C638.712830,358.723877 644.958008,362.164093 649.975220,366.972656 
	C653.755005,370.595215 658.265747,373.417114 661.886536,377.682373 
z"/>
<path fill="#B3B2B2" opacity="1.000000" stroke="none" 
	d="
M493.441833,377.515198 
	C443.040314,377.934784 392.970856,377.971802 342.430176,377.993042 
	C348.000397,370.246857 356.305359,364.849701 362.885803,357.674896 
	C364.112671,356.337219 365.342926,355.002686 366.562805,353.340637 
	C366.792816,353.002411 367.031677,352.990204 367.629272,352.984802 
	C369.968506,351.104156 372.435089,350.954163 374.983398,350.953613 
	C412.148254,350.945679 449.313141,350.940033 486.477997,350.965698 
	C488.479340,350.967072 490.490692,350.943878 492.760742,352.200287 
	C494.170990,353.458954 494.819916,354.708008 494.802551,356.022797 
	C494.709442,363.069427 496.278473,370.204926 493.441833,377.515198 
z"/>
<path fill="#808080" opacity="1.000000" stroke="none" 
	d="
M493.482086,353.428711 
	C451.717407,353.069855 410.322113,353.034424 368.457397,352.995300 
	C369.111023,348.911987 372.895752,347.050049 375.424774,344.149231 
	C377.688080,341.553101 380.226837,339.197083 382.757172,336.433411 
	C383.075989,336.102997 383.281708,336.074310 383.798462,336.064636 
	C386.068909,334.729553 388.199127,333.961151 390.620697,333.967194 
	C423.643707,334.049805 456.667419,333.715454 490.176086,334.197205 
	C495.198975,333.841675 499.735565,333.866760 504.755554,334.166138 
	C538.292542,333.783478 571.346680,334.020691 604.400513,333.966248 
	C606.763489,333.962341 609.008545,334.491791 611.578125,335.738281 
	C612.210938,335.966278 612.408691,335.955963 612.891357,336.029907 
	C619.709534,341.524261 626.242798,346.934387 632.893738,352.665405 
	C591.619446,353.005615 550.227478,353.024872 508.360718,353.075623 
	C503.333710,356.062805 498.622772,355.563629 493.482086,353.428711 
z"/>
<path fill="#B3B2B2" opacity="1.000000" stroke="none" 
	d="
M611.889771,335.662048 
	C576.616699,335.971436 541.220276,335.966278 505.347992,335.931122 
	C500.930908,332.131348 500.108368,327.651398 502.219727,322.293030 
	C504.740692,320.763641 507.110352,320.969910 509.429260,320.967499 
	C535.084412,320.940826 560.739624,320.989258 586.394470,320.906799 
	C589.481018,320.896851 592.299561,321.674927 595.599976,322.774963 
	C596.279724,322.981781 596.516541,322.968719 597.110474,322.978943 
	C601.418579,328.061462 607.170837,331.034546 611.889771,335.662048 
z"/>
<path fill="#B3B2B2" opacity="1.000000" stroke="none" 
	d="
M491.443390,335.510315 
	C455.753632,335.937531 420.392029,335.983154 384.569916,336.056244 
	C387.609253,331.944183 391.109070,327.804626 394.603088,323.334473 
	C394.826660,322.992249 395.056030,322.980713 395.629639,322.981842 
	C398.459900,321.466553 401.147339,320.925659 404.072418,320.930023 
	C430.396088,320.969330 456.719818,320.942444 483.043549,320.965851 
	C485.038879,320.967621 487.052765,320.884674 489.412537,321.890686 
	C493.744293,325.977814 493.721130,330.412170 491.443390,335.510315 
z"/>
<path fill="#808080" opacity="1.000000" stroke="none" 
	d="
M490.493622,323.412964 
	C459.048492,323.072296 427.981689,323.037109 396.444397,322.998230 
	C398.236816,319.667480 401.856110,317.471283 403.815491,313.475006 
	C404.138000,313.136169 404.312012,313.089600 404.756165,313.044739 
	C407.028961,311.803711 409.137177,310.966949 411.559631,310.966583 
	C436.094452,310.962952 460.629303,310.898376 485.164062,311.008942 
	C485.996338,311.012695 486.804016,311.238556 488.114716,311.334167 
	C491.840851,310.742737 495.077881,310.970123 498.800171,311.284149 
	C515.849976,310.600983 532.420532,311.101898 548.987610,310.963928 
	C556.610840,310.900452 564.236389,311.037109 571.858154,310.916046 
	C575.391846,310.859924 578.785950,311.243561 582.481812,312.827271 
	C583.088562,313.085693 583.278137,313.078979 583.744019,313.137268 
	C587.928528,316.260345 591.836792,319.318390 595.893982,322.685669 
	C564.973022,323.010590 533.903198,323.026337 502.358459,323.075989 
	C498.350128,325.793121 494.652191,325.500458 490.493622,323.412964 
z"/>
<path fill="#B3B2B2" opacity="1.000000" stroke="none" 
	d="
M582.781738,312.772644 
	C555.210327,313.046021 527.521606,312.999603 499.357849,312.921814 
	C496.229523,310.600037 494.879730,307.992401 497.243683,304.276306 
	C499.774780,302.759277 502.142914,302.972992 504.459991,302.969543 
	C523.772034,302.940979 543.084351,303.001343 562.395935,302.908630 
	C565.480469,302.893829 568.298584,303.674652 571.594910,304.776123 
	C572.281311,304.982941 572.527283,304.969025 573.142578,304.982239 
	C575.998657,308.184113 579.555664,310.042999 582.781738,312.772644 
z"/>
<path fill="#B3B2B2" opacity="1.000000" stroke="none" 
	d="
M489.388489,312.497314 
	C461.393951,312.937653 433.677673,312.980011 405.493896,313.034393 
	C406.894409,310.588379 408.762421,308.130310 410.634888,305.343018 
	C410.865448,305.005096 411.091553,304.996368 411.657104,304.988190 
	C413.555450,303.575775 415.402405,302.989105 417.488525,302.987152 
	C439.468109,302.966644 461.447723,302.862885 483.427094,303.050842 
	C484.091949,303.056519 484.746368,303.223694 485.858948,303.552002 
	C489.640472,305.631012 490.376282,308.577301 489.388489,312.497314 
z"/>
<path fill="#808080" opacity="1.000000" stroke="none" 
	d="
M487.544403,305.333618 
	C462.395813,305.066681 437.664978,305.032684 412.465332,304.993713 
	C411.823242,302.004181 415.287750,301.405396 416.037842,298.652893 
	C416.129425,298.339478 416.584412,298.148834 416.829102,298.117920 
	C418.895477,296.891357 420.798218,295.973938 423.061035,295.985474 
	C443.250977,296.088257 463.443176,295.619263 484.117310,296.265442 
	C487.509399,295.830261 490.418427,296.097260 493.807434,296.171875 
	C513.975403,295.793823 533.664001,296.032440 553.351807,295.954468 
	C556.061462,295.943726 558.541260,296.879608 561.511597,297.815674 
	C562.119568,298.070526 562.305481,298.071075 562.762085,298.134155 
	C565.939941,300.253845 568.847168,302.310974 571.894836,304.682434 
	C547.302612,305.011444 522.569885,305.026031 497.362488,305.072998 
	C494.031586,307.562103 491.032623,307.256012 487.544403,305.333618 
z"/>
<path fill="#B3B2B2" opacity="1.000000" stroke="none" 
	d="
M561.800110,297.756958 
	C539.563293,298.033051 517.192871,297.996124 494.346558,297.928680 
	C491.364319,296.326263 489.431091,294.538879 491.784058,291.031891 
	C494.217316,289.797119 496.403229,290.024872 498.546967,290.021332 
	C512.814697,289.997620 527.082764,290.062683 541.349915,289.974304 
	C545.046814,289.951416 548.620178,290.335785 552.534851,291.777710 
	C553.205566,292.003235 553.445068,292.004822 554.046997,292.012268 
	C556.429810,294.359833 558.992065,295.976898 561.800110,297.756958 
z"/>
<path fill="#B3B2B2" opacity="1.000000" stroke="none" 
	d="
M485.396637,297.499573 
	C462.737366,297.944275 440.368713,297.987122 417.536926,298.058472 
	C418.265717,296.262573 419.457672,294.438141 420.695251,292.295715 
	C420.740875,291.977753 420.845825,291.919678 420.899414,291.946655 
	C423.010590,290.880035 425.077545,289.987152 427.520630,289.993195 
	C444.753601,290.035767 461.986755,289.979126 479.219818,290.036804 
	C480.387573,290.040710 481.534149,290.176788 483.095978,290.777893 
	C485.638428,292.540588 486.414520,294.556702 485.396637,297.499573 
z"/>
<path fill="#808080" opacity="1.000000" stroke="none" 
	d="
M484.477173,292.417786 
	C463.377319,292.070038 442.636749,292.028625 421.424561,291.980408 
	C421.630432,290.925537 422.307892,289.877472 422.999542,288.511963 
	C423.184906,288.152191 423.356110,288.109894 423.791687,288.059998 
	C425.422272,286.709717 427.065704,286.041077 428.978638,286.050934 
	C446.184296,286.139618 463.392792,285.658112 481.082214,286.274597 
	C483.832916,285.662018 486.093475,286.374939 488.836761,286.174652 
	C505.476562,285.908234 521.636597,286.084045 537.795776,285.985504 
	C540.697876,285.967804 543.376892,286.785492 546.511658,287.822449 
	C547.098145,288.090332 547.267212,288.099335 547.679932,288.174683 
	C549.519714,289.293854 551.115723,290.346710 552.838867,291.700623 
	C532.592896,292.014740 512.219788,292.027832 491.372864,292.076477 
	C489.045227,293.970062 486.997070,293.903870 484.477173,292.417786 
z"/>
<path fill="#B3B2B2" opacity="1.000000" stroke="none" 
	d="
M546.810974,287.775513 
	C527.894043,288.040863 508.858948,288.000305 489.348053,287.929688 
	C487.197815,286.799713 485.782654,285.609131 487.687927,283.118073 
	C489.773743,281.948669 491.619507,282.023712 493.446075,282.020660 
	C505.919189,281.999878 518.392334,282.027466 530.865417,282.000397 
	C533.738342,281.994171 536.465454,282.626434 539.580078,283.761139 
	C540.528198,284.011108 541.054321,284.022430 541.980103,284.029968 
	C543.563171,285.492462 544.978027,286.668915 546.810974,287.775513 
z"/>
<path fill="#808080" opacity="1.000000" stroke="none" 
	d="
M539.885132,283.691467 
	C522.617249,284.013702 505.232544,284.027618 487.374023,284.075562 
	C485.177765,286.258148 482.728638,285.536407 480.030823,285.828613 
	C463.804840,286.067963 448.058350,285.963104 432.312012,285.980682 
	C430.321564,285.982910 428.310028,286.039062 426.255951,284.393677 
	C425.923523,284.027222 425.890350,284.144257 425.829742,284.122498 
	C426.457520,282.931396 427.145905,281.762024 427.944824,280.270081 
	C428.055389,279.947571 428.019470,280.007599 427.986755,279.995178 
	C429.670380,278.262390 431.865387,278.499908 434.004272,278.500031 
	C448.193573,278.500732 462.382843,278.498383 477.059296,278.501404 
	C479.488007,278.498627 481.429565,278.502502 483.857605,278.501678 
	C497.810181,278.498749 511.276306,278.510681 524.742432,278.491028 
	C527.246887,278.487366 529.733643,278.489197 532.487549,279.804077 
	C533.337280,280.111359 533.781555,280.145905 534.549377,280.250458 
	C536.504761,281.341370 538.136536,282.362244 539.885132,283.691467 
z"/>
<path fill="#B3B2B2" opacity="1.000000" stroke="none" 
	d="
M425.820099,284.334717 
	C443.673126,284.031067 461.422699,284.034943 479.647888,284.067627 
	C481.372375,284.792023 482.441833,285.614807 482.230286,287.571533 
	C463.061707,287.931335 444.023407,287.972717 424.520599,288.033234 
	C423.913910,286.576874 424.927795,285.664368 425.820099,284.334717 
z"/>
<path fill="#E90A07" opacity="1.000000" stroke="none" 
	d="
M410.128143,286.119324 
	C414.159363,284.380432 418.133453,284.984100 422.130402,285.982269 
	C418.164368,287.195435 414.148499,287.347626 410.128143,286.119324 
z"/>
<path fill="#B3B2B2" opacity="1.000000" stroke="none" 
	d="
M477.890503,272.603271 
	C490.958160,272.073364 504.016724,272.035767 517.545044,271.998749 
	C518.536804,272.005981 519.058777,272.012604 519.976929,272.016479 
	C520.320618,273.057587 521.509888,272.851288 521.921143,273.771301 
	C520.667236,275.765991 518.763794,275.493835 516.970581,275.489594 
	C504.906006,275.460938 492.841095,275.598602 480.301666,275.303467 
	C478.872589,274.772217 478.203033,274.096008 477.890503,272.603271 
z"/>
<path fill="#B3B2B2" opacity="1.000000" stroke="none" 
	d="
M532.833435,279.780273 
	C516.868652,280.038513 500.844269,280.000183 484.344025,279.928406 
	C482.641449,279.036133 480.932526,278.385284 482.752502,276.128693 
	C497.822113,275.619385 512.506958,274.479614 527.568848,276.776978 
	C528.539246,277.009552 529.082520,277.022400 530.038330,277.032654 
	C531.225159,277.847931 531.999451,278.665833 532.833435,279.780273 
z"/>
<path fill="#808080" opacity="1.000000" stroke="none" 
	d="
M527.876404,276.698120 
	C512.947266,277.012146 497.898590,277.027557 482.376099,277.074463 
	C480.437958,278.924774 478.368134,278.372040 475.982483,278.495117 
	C462.128113,278.503296 448.761505,278.515198 435.394989,278.481354 
	C433.447571,278.476410 431.413208,278.902100 429.264343,277.389221 
	C428.931427,277.028076 429.002441,277.087311 428.971771,277.123291 
	C429.242188,276.289154 429.543304,275.419006 429.889160,274.197906 
	C429.933899,273.846924 430.005737,273.908447 429.969666,273.939026 
	C431.679443,272.629364 433.732819,273.022003 435.685181,273.016571 
	C447.602264,272.983398 459.519409,273.000641 471.915527,273.000305 
	C474.280548,273.083313 476.199921,272.767334 478.455688,273.686005 
	C492.934265,273.941589 506.990997,273.983490 521.515259,274.038910 
	C522.438110,274.055664 522.893494,274.058868 523.684387,274.120422 
	C525.265564,274.919006 526.511230,275.659241 527.876404,276.698120 
z"/>
<path fill="#B3B2B2" opacity="1.000000" stroke="none" 
	d="
M473.293579,273.612000 
	C459.033478,273.929016 444.956360,273.964142 430.406372,273.984436 
	C429.928070,273.537567 429.922577,273.105530 429.925720,272.349548 
	C444.007782,272.029449 458.081238,272.033325 472.628967,272.067200 
	C473.397522,272.456757 473.521942,272.867706 473.293579,273.612000 
z"/>
<path fill="#B3B2B2" opacity="1.000000" stroke="none" 
	d="
M428.848022,277.331482 
	C444.346893,277.033020 459.762360,277.037994 475.653748,277.073212 
	C476.971405,277.701660 478.115601,278.000580 478.189270,279.580200 
	C461.700592,279.921997 445.298889,279.956360 428.425629,279.986755 
	C428.224243,279.200134 428.494415,278.417542 428.848022,277.331482 
z"/>
<path fill="#FDFDFB" opacity="1.000000" stroke="none" 
	d="
M473.521210,273.937012 
	C473.086609,273.494324 473.062592,273.094696 473.070892,272.396179 
	C474.436798,272.071503 475.770386,272.045807 477.501770,272.065521 
	C478.187592,272.539154 478.475616,272.967377 478.820587,273.647644 
	C477.228943,273.926483 475.580383,273.953308 473.521210,273.937012 
z"/>
<path fill="#FEFEFE" opacity="1.000000" stroke="none" 
	d="
M493.073273,353.565247 
	C497.733002,353.077118 502.353363,353.048950 507.429779,353.063965 
	C509.119354,361.124817 510.352844,369.142456 511.726471,377.528748 
	C505.920227,377.926453 499.973846,377.955597 493.568604,377.941254 
	C493.084473,369.940277 493.059174,361.982758 493.073273,353.565247 
z"/>
<path fill="#FEFEFE" opacity="1.000000" stroke="none" 
	d="
M490.122742,323.514771 
	C493.738434,323.079163 497.361572,323.050812 501.434174,323.066162 
	C502.798248,327.134735 503.712891,331.159637 504.749847,335.542816 
	C500.589508,335.924194 496.306854,335.947235 491.569733,335.931091 
	C490.582062,331.918823 491.801941,327.801453 490.122742,323.514771 
z"/>
<path fill="#FEFEFE" opacity="1.000000" stroke="none" 
	d="
M487.250885,305.446014 
	C490.085938,305.073517 493.045258,305.046295 496.446167,305.062195 
	C497.558838,307.456635 498.229889,309.807953 498.891876,312.524811 
	C495.919952,312.920624 492.957092,312.950836 489.552246,312.938202 
	C488.531860,310.527313 487.953491,308.159332 487.250885,305.446014 
z"/>
<path fill="#FEFEFE" opacity="1.000000" stroke="none" 
	d="
M484.082581,292.483246 
	C486.096863,292.082642 488.075836,292.053864 490.476929,292.068542 
	C491.829315,293.833801 492.759583,295.555634 493.780273,297.587799 
	C491.240021,297.927246 488.609375,297.956299 485.542358,297.943420 
	C484.753082,296.219330 484.400177,294.537201 484.082581,292.483246 
z"/>
<path fill="#FEFEFE" opacity="1.000000" stroke="none" 
	d="
M482.521729,287.932800 
	C481.500977,286.821198 480.901978,285.752441 480.213226,284.390045 
	C482.101135,284.071899 484.078827,284.047394 486.478363,284.066223 
	C487.499329,285.177002 488.098419,286.244385 488.784851,287.605652 
	C486.895996,287.924896 484.919739,287.950256 482.521729,287.932800 
z"/>
<path fill="#FEFEFE" opacity="1.000000" stroke="none" 
	d="
M478.512360,279.931763 
	C477.498840,279.143280 476.895355,278.398926 476.210754,277.379028 
	C477.780243,277.074463 479.430878,277.045441 481.491882,277.061188 
	C482.502808,277.852203 483.103333,278.598450 483.786041,279.619812 
	C482.219604,279.921906 480.571014,279.948853 478.512360,279.931763 
z"/>
</svg>